<?xml version="1.0" encoding="UTF-8" standalone="no"?>
<!DOCTYPE svg PUBLIC "-//W3C//DTD SVG 1.1//EN"
 "http://www.w3.org/Graphics/SVG/1.1/DTD/svg11.dtd">
<!-- Generated by graphviz version 2.40.1 (0)
 -->
<!-- Title: %3 Pages: 1 -->
<svg width="701pt" height="766pt"
 viewBox="0.00 0.00 701.00 766.00" xmlns="http://www.w3.org/2000/svg" xmlns:xlink="http://www.w3.org/1999/xlink">
<g id="graph0" class="graph" transform="scale(1 1) rotate(0) translate(4 762)">
<title>%3</title>
<polygon fill="#ffffff" stroke="transparent" points="-4,4 -4,-762 697,-762 697,4 -4,4"/>
<g id="clust1" class="cluster">
<title>cluster__vbmeta</title>
<polygon fill="none" stroke="#000000" stroke-dasharray="1,5" points="8,-8 8,-750 685,-750 685,-8 8,-8"/>
<text text-anchor="middle" x="346.5" y="-734.8" font-family="Times,serif" font-size="14.00" fill="#000000">Vbmeta</text>
</g>
<g id="clust2" class="cluster">
<title>cluster__position</title>
<polygon fill="none" stroke="#000000" stroke-dasharray="1,5" points="424.5,-489 424.5,-600 609.5,-600 609.5,-489 424.5,-489"/>
<text text-anchor="middle" x="517" y="-584.8" font-family="Times,serif" font-size="14.00" fill="#000000">Vbmeta::Position</text>
</g>
<g id="clust3" class="cluster">
<title>cluster__version</title>
<polygon fill="none" stroke="#000000" stroke-dasharray="1,5" points="423,-608 423,-719 611,-719 611,-608 423,-608"/>
<text text-anchor="middle" x="517" y="-703.8" font-family="Times,serif" font-size="14.00" fill="#000000">Vbmeta::Version</text>
</g>
<g id="clust4" class="cluster">
<title>cluster__header</title>
<polygon fill="none" stroke="#000000" stroke-dasharray="1,5" points="16,-16 16,-379 677,-379 677,-16 16,-16"/>
<text text-anchor="middle" x="346.5" y="-363.8" font-family="Times,serif" font-size="14.00" fill="#000000">Vbmeta::Header</text>
</g>
<!-- vbmeta__seq -->
<g id="node1" class="node">
<title>vbmeta__seq</title>
<polygon fill="#e0ffe0" stroke="transparent" points="380,-454 380,-475 414,-475 414,-454 380,-454"/>
<polygon fill="none" stroke="#000000" points="380,-454 380,-475 414,-475 414,-454 380,-454"/>
<text text-anchor="start" x="384.5" y="-460.8" font-family="Times,serif" font-size="14.00" fill="#000000">pos</text>
<polygon fill="#e0ffe0" stroke="transparent" points="414,-454 414,-475 540,-475 540,-454 414,-454"/>
<polygon fill="none" stroke="#000000" points="414,-454 414,-475 540,-475 540,-454 414,-454"/>
<text text-anchor="start" x="463" y="-460.8" font-family="Times,serif" font-size="14.00" fill="#000000">size</text>
<polygon fill="#e0ffe0" stroke="transparent" points="540,-454 540,-475 599,-475 599,-454 540,-454"/>
<polygon fill="none" stroke="#000000" points="540,-454 540,-475 599,-475 599,-454 540,-454"/>
<text text-anchor="start" x="553.5" y="-460.8" font-family="Times,serif" font-size="14.00" fill="#000000">type</text>
<polygon fill="#e0ffe0" stroke="transparent" points="599,-454 599,-475 655,-475 655,-454 599,-454"/>
<polygon fill="none" stroke="#000000" points="599,-454 599,-475 655,-475 655,-454 599,-454"/>
<text text-anchor="start" x="620" y="-460.8" font-family="Times,serif" font-size="14.00" fill="#000000">id</text>
<polygon fill="none" stroke="#000000" points="380,-433 380,-454 414,-454 414,-433 380,-433"/>
<text text-anchor="start" x="392" y="-439.8" font-family="Times,serif" font-size="14.00" fill="#000000">0</text>
<polygon fill="none" stroke="#000000" points="414,-433 414,-454 540,-454 540,-433 414,-433"/>
<text text-anchor="start" x="463" y="-439.8" font-family="Times,serif" font-size="14.00" fill="#000000">256</text>
<polygon fill="none" stroke="#000000" points="540,-433 540,-454 599,-454 599,-433 540,-433"/>
<text text-anchor="start" x="543" y="-439.8" font-family="Times,serif" font-size="14.00" fill="#000000">Header</text>
<polygon fill="none" stroke="#000000" points="599,-433 599,-454 655,-454 655,-433 599,-433"/>
<text text-anchor="start" x="602" y="-439.8" font-family="Times,serif" font-size="14.00" fill="#000000">header</text>
<polygon fill="none" stroke="#000000" points="380,-412 380,-433 414,-433 414,-412 380,-412"/>
<text text-anchor="start" x="383" y="-418.8" font-family="Times,serif" font-size="14.00" fill="#000000">256</text>
<polygon fill="none" stroke="#000000" points="414,-412 414,-433 540,-433 540,-412 414,-412"/>
<text text-anchor="start" x="417" y="-418.8" font-family="Times,serif" font-size="14.00" fill="#000000">header.auth_size</text>
<polygon fill="none" stroke="#000000" points="540,-412 540,-433 599,-433 599,-412 540,-412"/>
<polygon fill="none" stroke="#000000" points="599,-412 599,-433 655,-433 655,-412 599,-412"/>
<text text-anchor="start" x="610.5" y="-418.8" font-family="Times,serif" font-size="14.00" fill="#000000">auth</text>
<polygon fill="none" stroke="#000000" points="380,-391 380,-412 414,-412 414,-391 380,-391"/>
<text text-anchor="start" x="390" y="-397.8" font-family="Times,serif" font-size="14.00" fill="#000000">...</text>
<polygon fill="none" stroke="#000000" points="414,-391 414,-412 540,-412 540,-391 414,-391"/>
<text text-anchor="start" x="420.5" y="-397.8" font-family="Times,serif" font-size="14.00" fill="#000000">header.aux_size</text>
<polygon fill="none" stroke="#000000" points="540,-391 540,-412 599,-412 599,-391 540,-391"/>
<polygon fill="none" stroke="#000000" points="599,-391 599,-412 655,-412 655,-391 599,-391"/>
<text text-anchor="start" x="614" y="-397.8" font-family="Times,serif" font-size="14.00" fill="#000000">aux</text>
</g>
<!-- header__seq -->
<g id="node4" class="node">
<title>header__seq</title>
<polygon fill="#e0ffe0" stroke="transparent" points="32.5,-322 32.5,-343 66.5,-343 66.5,-322 32.5,-322"/>
<polygon fill="none" stroke="#000000" points="32.5,-322 32.5,-343 66.5,-343 66.5,-322 32.5,-322"/>
<text text-anchor="start" x="37" y="-328.8" font-family="Times,serif" font-size="14.00" fill="#000000">pos</text>
<polygon fill="#e0ffe0" stroke="transparent" points="66.5,-322 66.5,-343 100.5,-343 100.5,-322 66.5,-322"/>
<polygon fill="none" stroke="#000000" points="66.5,-322 66.5,-343 100.5,-343 100.5,-322 66.5,-322"/>
<text text-anchor="start" x="69.5" y="-328.8" font-family="Times,serif" font-size="14.00" fill="#000000">size</text>
<polygon fill="#e0ffe0" stroke="transparent" points="100.5,-322 100.5,-343 212.5,-343 212.5,-322 100.5,-322"/>
<polygon fill="none" stroke="#000000" points="100.5,-322 100.5,-343 212.5,-343 212.5,-322 100.5,-322"/>
<text text-anchor="start" x="140.5" y="-328.8" font-family="Times,serif" font-size="14.00" fill="#000000">type</text>
<polygon fill="#e0ffe0" stroke="transparent" points="212.5,-322 212.5,-343 321.5,-343 321.5,-322 212.5,-322"/>
<polygon fill="none" stroke="#000000" points="212.5,-322 212.5,-343 321.5,-343 321.5,-322 212.5,-322"/>
<text text-anchor="start" x="260" y="-328.8" font-family="Times,serif" font-size="14.00" fill="#000000">id</text>
<polygon fill="none" stroke="#000000" points="32.5,-301 32.5,-322 66.5,-322 66.5,-301 32.5,-301"/>
<text text-anchor="start" x="44.5" y="-307.8" font-family="Times,serif" font-size="14.00" fill="#000000">0</text>
<polygon fill="none" stroke="#000000" points="66.5,-301 66.5,-322 100.5,-322 100.5,-301 66.5,-301"/>
<text text-anchor="start" x="78.5" y="-307.8" font-family="Times,serif" font-size="14.00" fill="#000000">4</text>
<polygon fill="none" stroke="#000000" points="100.5,-301 100.5,-322 212.5,-322 212.5,-301 100.5,-301"/>
<text text-anchor="start" x="113.5" y="-307.8" font-family="Times,serif" font-size="14.00" fill="#000000">41 56 42 30</text>
<polygon fill="none" stroke="#000000" points="212.5,-301 212.5,-322 321.5,-322 321.5,-301 212.5,-301"/>
<text text-anchor="start" x="245.5" y="-307.8" font-family="Times,serif" font-size="14.00" fill="#000000">magic</text>
<polygon fill="none" stroke="#000000" points="32.5,-280 32.5,-301 66.5,-301 66.5,-280 32.5,-280"/>
<text text-anchor="start" x="44.5" y="-286.8" font-family="Times,serif" font-size="14.00" fill="#000000">4</text>
<polygon fill="none" stroke="#000000" points="66.5,-280 66.5,-301 100.5,-301 100.5,-280 66.5,-280"/>
<text text-anchor="start" x="78.5" y="-286.8" font-family="Times,serif" font-size="14.00" fill="#000000">8</text>
<polygon fill="none" stroke="#000000" points="100.5,-280 100.5,-301 212.5,-301 212.5,-280 100.5,-280"/>
<text text-anchor="start" x="129.5" y="-286.8" font-family="Times,serif" font-size="14.00" fill="#000000">Version</text>
<polygon fill="none" stroke="#000000" points="212.5,-280 212.5,-301 321.5,-301 321.5,-280 212.5,-280"/>
<text text-anchor="start" x="240.5" y="-286.8" font-family="Times,serif" font-size="14.00" fill="#000000">version</text>
<polygon fill="none" stroke="#000000" points="32.5,-259 32.5,-280 66.5,-280 66.5,-259 32.5,-259"/>
<text text-anchor="start" x="40" y="-265.8" font-family="Times,serif" font-size="14.00" fill="#000000">12</text>
<polygon fill="none" stroke="#000000" points="66.5,-259 66.5,-280 100.5,-280 100.5,-259 66.5,-259"/>
<text text-anchor="start" x="78.5" y="-265.8" font-family="Times,serif" font-size="14.00" fill="#000000">8</text>
<polygon fill="none" stroke="#000000" points="100.5,-259 100.5,-280 212.5,-280 212.5,-259 100.5,-259"/>
<text text-anchor="start" x="138.5" y="-265.8" font-family="Times,serif" font-size="14.00" fill="#000000">u8be</text>
<polygon fill="none" stroke="#000000" points="212.5,-259 212.5,-280 321.5,-280 321.5,-259 212.5,-259"/>
<text text-anchor="start" x="233.5" y="-265.8" font-family="Times,serif" font-size="14.00" fill="#000000">auth_size</text>
<polygon fill="none" stroke="#000000" points="32.5,-238 32.5,-259 66.5,-259 66.5,-238 32.5,-238"/>
<text text-anchor="start" x="40" y="-244.8" font-family="Times,serif" font-size="14.00" fill="#000000">20</text>
<polygon fill="none" stroke="#000000" points="66.5,-238 66.5,-259 100.5,-259 100.5,-238 66.5,-238"/>
<text text-anchor="start" x="78.5" y="-244.8" font-family="Times,serif" font-size="14.00" fill="#000000">8</text>
<polygon fill="none" stroke="#000000" points="100.5,-238 100.5,-259 212.5,-259 212.5,-238 100.5,-238"/>
<text text-anchor="start" x="138.5" y="-244.8" font-family="Times,serif" font-size="14.00" fill="#000000">u8be</text>
<polygon fill="none" stroke="#000000" points="212.5,-238 212.5,-259 321.5,-259 321.5,-238 212.5,-238"/>
<text text-anchor="start" x="236.5" y="-244.8" font-family="Times,serif" font-size="14.00" fill="#000000">aux_size</text>
<polygon fill="none" stroke="#000000" points="32.5,-217 32.5,-238 66.5,-238 66.5,-217 32.5,-217"/>
<text text-anchor="start" x="40" y="-223.8" font-family="Times,serif" font-size="14.00" fill="#000000">28</text>
<polygon fill="none" stroke="#000000" points="66.5,-217 66.5,-238 100.5,-238 100.5,-217 66.5,-217"/>
<text text-anchor="start" x="78.5" y="-223.8" font-family="Times,serif" font-size="14.00" fill="#000000">4</text>
<polygon fill="none" stroke="#000000" points="100.5,-217 100.5,-238 212.5,-238 212.5,-217 100.5,-217"/>
<text text-anchor="start" x="103.5" y="-223.8" font-family="Times,serif" font-size="14.00" fill="#000000">u4be→AlgType</text>
<polygon fill="none" stroke="#000000" points="212.5,-217 212.5,-238 321.5,-238 321.5,-217 212.5,-217"/>
<text text-anchor="start" x="256" y="-223.8" font-family="Times,serif" font-size="14.00" fill="#000000">alg</text>
<polygon fill="none" stroke="#000000" points="32.5,-196 32.5,-217 66.5,-217 66.5,-196 32.5,-196"/>
<text text-anchor="start" x="40" y="-202.8" font-family="Times,serif" font-size="14.00" fill="#000000">32</text>
<polygon fill="none" stroke="#000000" points="66.5,-196 66.5,-217 100.5,-217 100.5,-196 66.5,-196"/>
<text text-anchor="start" x="74" y="-202.8" font-family="Times,serif" font-size="14.00" fill="#000000">16</text>
<polygon fill="none" stroke="#000000" points="100.5,-196 100.5,-217 212.5,-217 212.5,-196 100.5,-196"/>
<text text-anchor="start" x="127.5" y="-202.8" font-family="Times,serif" font-size="14.00" fill="#000000">Position</text>
<polygon fill="none" stroke="#000000" points="212.5,-196 212.5,-217 321.5,-217 321.5,-196 212.5,-196"/>
<text text-anchor="start" x="250" y="-202.8" font-family="Times,serif" font-size="14.00" fill="#000000">hash</text>
<polygon fill="none" stroke="#000000" points="32.5,-175 32.5,-196 66.5,-196 66.5,-175 32.5,-175"/>
<text text-anchor="start" x="40" y="-181.8" font-family="Times,serif" font-size="14.00" fill="#000000">48</text>
<polygon fill="none" stroke="#000000" points="66.5,-175 66.5,-196 100.5,-196 100.5,-175 66.5,-175"/>
<text text-anchor="start" x="74" y="-181.8" font-family="Times,serif" font-size="14.00" fill="#000000">16</text>
<polygon fill="none" stroke="#000000" points="100.5,-175 100.5,-196 212.5,-196 212.5,-175 100.5,-175"/>
<text text-anchor="start" x="127.5" y="-181.8" font-family="Times,serif" font-size="14.00" fill="#000000">Position</text>
<polygon fill="none" stroke="#000000" points="212.5,-175 212.5,-196 321.5,-196 321.5,-175 212.5,-175"/>
<text text-anchor="start" x="251.5" y="-181.8" font-family="Times,serif" font-size="14.00" fill="#000000">sign</text>
<polygon fill="none" stroke="#000000" points="32.5,-154 32.5,-175 66.5,-175 66.5,-154 32.5,-154"/>
<text text-anchor="start" x="40" y="-160.8" font-family="Times,serif" font-size="14.00" fill="#000000">64</text>
<polygon fill="none" stroke="#000000" points="66.5,-154 66.5,-175 100.5,-175 100.5,-154 66.5,-154"/>
<text text-anchor="start" x="74" y="-160.8" font-family="Times,serif" font-size="14.00" fill="#000000">16</text>
<polygon fill="none" stroke="#000000" points="100.5,-154 100.5,-175 212.5,-175 212.5,-154 100.5,-154"/>
<text text-anchor="start" x="127.5" y="-160.8" font-family="Times,serif" font-size="14.00" fill="#000000">Position</text>
<polygon fill="none" stroke="#000000" points="212.5,-154 212.5,-175 321.5,-175 321.5,-154 212.5,-154"/>
<text text-anchor="start" x="258" y="-160.8" font-family="Times,serif" font-size="14.00" fill="#000000">pk</text>
<polygon fill="none" stroke="#000000" points="32.5,-133 32.5,-154 66.5,-154 66.5,-133 32.5,-133"/>
<text text-anchor="start" x="40" y="-139.8" font-family="Times,serif" font-size="14.00" fill="#000000">80</text>
<polygon fill="none" stroke="#000000" points="66.5,-133 66.5,-154 100.5,-154 100.5,-133 66.5,-133"/>
<text text-anchor="start" x="74" y="-139.8" font-family="Times,serif" font-size="14.00" fill="#000000">16</text>
<polygon fill="none" stroke="#000000" points="100.5,-133 100.5,-154 212.5,-154 212.5,-133 100.5,-133"/>
<text text-anchor="start" x="127.5" y="-139.8" font-family="Times,serif" font-size="14.00" fill="#000000">Position</text>
<polygon fill="none" stroke="#000000" points="212.5,-133 212.5,-154 321.5,-154 321.5,-133 212.5,-133"/>
<text text-anchor="start" x="236.5" y="-139.8" font-family="Times,serif" font-size="14.00" fill="#000000">pk_meta</text>
<polygon fill="none" stroke="#000000" points="32.5,-112 32.5,-133 66.5,-133 66.5,-112 32.5,-112"/>
<text text-anchor="start" x="40" y="-118.8" font-family="Times,serif" font-size="14.00" fill="#000000">96</text>
<polygon fill="none" stroke="#000000" points="66.5,-112 66.5,-133 100.5,-133 100.5,-112 66.5,-112"/>
<text text-anchor="start" x="74" y="-118.8" font-family="Times,serif" font-size="14.00" fill="#000000">16</text>
<polygon fill="none" stroke="#000000" points="100.5,-112 100.5,-133 212.5,-133 212.5,-112 100.5,-112"/>
<text text-anchor="start" x="127.5" y="-118.8" font-family="Times,serif" font-size="14.00" fill="#000000">Position</text>
<polygon fill="none" stroke="#000000" points="212.5,-112 212.5,-133 321.5,-133 321.5,-112 212.5,-112"/>
<text text-anchor="start" x="250.5" y="-118.8" font-family="Times,serif" font-size="14.00" fill="#000000">desc</text>
<polygon fill="none" stroke="#000000" points="32.5,-91 32.5,-112 66.5,-112 66.5,-91 32.5,-91"/>
<text text-anchor="start" x="35.5" y="-97.8" font-family="Times,serif" font-size="14.00" fill="#000000">112</text>
<polygon fill="none" stroke="#000000" points="66.5,-91 66.5,-112 100.5,-112 100.5,-91 66.5,-91"/>
<text text-anchor="start" x="78.5" y="-97.8" font-family="Times,serif" font-size="14.00" fill="#000000">8</text>
<polygon fill="none" stroke="#000000" points="100.5,-91 100.5,-112 212.5,-112 212.5,-91 100.5,-91"/>
<text text-anchor="start" x="138.5" y="-97.8" font-family="Times,serif" font-size="14.00" fill="#000000">u8be</text>
<polygon fill="none" stroke="#000000" points="212.5,-91 212.5,-112 321.5,-112 321.5,-91 212.5,-91"/>
<text text-anchor="start" x="215.5" y="-97.8" font-family="Times,serif" font-size="14.00" fill="#000000">rollback_index</text>
<polygon fill="none" stroke="#000000" points="32.5,-70 32.5,-91 66.5,-91 66.5,-70 32.5,-70"/>
<text text-anchor="start" x="35.5" y="-76.8" font-family="Times,serif" font-size="14.00" fill="#000000">120</text>
<polygon fill="none" stroke="#000000" points="66.5,-70 66.5,-91 100.5,-91 100.5,-70 66.5,-70"/>
<text text-anchor="start" x="78.5" y="-76.8" font-family="Times,serif" font-size="14.00" fill="#000000">4</text>
<polygon fill="none" stroke="#000000" points="100.5,-70 100.5,-91 212.5,-91 212.5,-70 100.5,-70"/>
<text text-anchor="start" x="138.5" y="-76.8" font-family="Times,serif" font-size="14.00" fill="#000000">u4be</text>
<polygon fill="none" stroke="#000000" points="212.5,-70 212.5,-91 321.5,-91 321.5,-70 212.5,-70"/>
<text text-anchor="start" x="250" y="-76.8" font-family="Times,serif" font-size="14.00" fill="#000000">flags</text>
<polygon fill="none" stroke="#000000" points="32.5,-49 32.5,-70 66.5,-70 66.5,-49 32.5,-49"/>
<text text-anchor="start" x="35.5" y="-55.8" font-family="Times,serif" font-size="14.00" fill="#000000">124</text>
<polygon fill="none" stroke="#000000" points="66.5,-49 66.5,-70 100.5,-70 100.5,-49 66.5,-49"/>
<text text-anchor="start" x="78.5" y="-55.8" font-family="Times,serif" font-size="14.00" fill="#000000">4</text>
<polygon fill="none" stroke="#000000" points="100.5,-49 100.5,-70 212.5,-70 212.5,-49 100.5,-49"/>
<text text-anchor="start" x="113.5" y="-55.8" font-family="Times,serif" font-size="14.00" fill="#000000">00 00 00 00</text>
<polygon fill="none" stroke="#000000" points="212.5,-49 212.5,-70 321.5,-70 321.5,-49 212.5,-49"/>
<text text-anchor="start" x="230.5" y="-55.8" font-family="Times,serif" font-size="14.00" fill="#000000">reserved0</text>
<polygon fill="none" stroke="#000000" points="32.5,-28 32.5,-49 66.5,-49 66.5,-28 32.5,-28"/>
<text text-anchor="start" x="35.5" y="-34.8" font-family="Times,serif" font-size="14.00" fill="#000000">128</text>
<polygon fill="none" stroke="#000000" points="66.5,-28 66.5,-49 100.5,-49 100.5,-28 66.5,-28"/>
<text text-anchor="start" x="74" y="-34.8" font-family="Times,serif" font-size="14.00" fill="#000000">48</text>
<polygon fill="none" stroke="#000000" points="100.5,-28 100.5,-49 212.5,-49 212.5,-28 100.5,-28"/>
<text text-anchor="start" x="120.5" y="-34.8" font-family="Times,serif" font-size="14.00" fill="#000000">str(ASCII)</text>
<polygon fill="none" stroke="#000000" points="212.5,-28 212.5,-49 321.5,-49 321.5,-28 212.5,-28"/>
<text text-anchor="start" x="216" y="-34.8" font-family="Times,serif" font-size="14.00" fill="#000000">release_string</text>
</g>
<!-- vbmeta__seq&#45;&gt;header__seq -->
<g id="edge1" class="edge">
<title>vbmeta__seq:header_type&#45;&gt;header__seq</title>
<path fill="none" stroke="#000000" stroke-width="2" d="M655,-444C655,-444 371.5,-479 371.5,-479 320.6886,-451.7808 280.8457,-404.835 250.7873,-356.3974"/>
<polygon fill="#000000" stroke="#000000" stroke-width="2" points="253.6625,-354.389 245.4786,-347.6604 247.6802,-358.024 253.6625,-354.389"/>
</g>
<!-- position__seq -->
<g id="node2" class="node">
<title>position__seq</title>
<polygon fill="#e0ffe0" stroke="transparent" points="441,-543 441,-564 472,-564 472,-543 441,-543"/>
<polygon fill="none" stroke="#000000" points="441,-543 441,-564 472,-564 472,-543 441,-543"/>
<text text-anchor="start" x="444" y="-549.8" font-family="Times,serif" font-size="14.00" fill="#000000">pos</text>
<polygon fill="#e0ffe0" stroke="transparent" points="472,-543 472,-564 506,-564 506,-543 472,-543"/>
<polygon fill="none" stroke="#000000" points="472,-543 472,-564 506,-564 506,-543 472,-543"/>
<text text-anchor="start" x="475" y="-549.8" font-family="Times,serif" font-size="14.00" fill="#000000">size</text>
<polygon fill="#e0ffe0" stroke="transparent" points="506,-543 506,-564 548,-564 548,-543 506,-543"/>
<polygon fill="none" stroke="#000000" points="506,-543 506,-564 548,-564 548,-543 506,-543"/>
<text text-anchor="start" x="511" y="-549.8" font-family="Times,serif" font-size="14.00" fill="#000000">type</text>
<polygon fill="#e0ffe0" stroke="transparent" points="548,-543 548,-564 594,-564 594,-543 548,-543"/>
<polygon fill="none" stroke="#000000" points="548,-543 548,-564 594,-564 594,-543 548,-543"/>
<text text-anchor="start" x="564" y="-549.8" font-family="Times,serif" font-size="14.00" fill="#000000">id</text>
<polygon fill="none" stroke="#000000" points="441,-522 441,-543 472,-543 472,-522 441,-522"/>
<text text-anchor="start" x="451.5" y="-528.8" font-family="Times,serif" font-size="14.00" fill="#000000">0</text>
<polygon fill="none" stroke="#000000" points="472,-522 472,-543 506,-543 506,-522 472,-522"/>
<text text-anchor="start" x="484" y="-528.8" font-family="Times,serif" font-size="14.00" fill="#000000">8</text>
<polygon fill="none" stroke="#000000" points="506,-522 506,-543 548,-543 548,-522 506,-522"/>
<text text-anchor="start" x="509" y="-528.8" font-family="Times,serif" font-size="14.00" fill="#000000">u8be</text>
<polygon fill="none" stroke="#000000" points="548,-522 548,-543 594,-543 594,-522 548,-522"/>
<text text-anchor="start" x="551" y="-528.8" font-family="Times,serif" font-size="14.00" fill="#000000">offset</text>
<polygon fill="none" stroke="#000000" points="441,-501 441,-522 472,-522 472,-501 441,-501"/>
<text text-anchor="start" x="451.5" y="-507.8" font-family="Times,serif" font-size="14.00" fill="#000000">8</text>
<polygon fill="none" stroke="#000000" points="472,-501 472,-522 506,-522 506,-501 472,-501"/>
<text text-anchor="start" x="484" y="-507.8" font-family="Times,serif" font-size="14.00" fill="#000000">8</text>
<polygon fill="none" stroke="#000000" points="506,-501 506,-522 548,-522 548,-501 506,-501"/>
<text text-anchor="start" x="509" y="-507.8" font-family="Times,serif" font-size="14.00" fill="#000000">u8be</text>
<polygon fill="none" stroke="#000000" points="548,-501 548,-522 594,-522 594,-501 548,-501"/>
<text text-anchor="start" x="557" y="-507.8" font-family="Times,serif" font-size="14.00" fill="#000000">size</text>
</g>
<!-- version__seq -->
<g id="node3" class="node">
<title>version__seq</title>
<polygon fill="#e0ffe0" stroke="transparent" points="439,-662 439,-683 470,-683 470,-662 439,-662"/>
<polygon fill="none" stroke="#000000" points="439,-662 439,-683 470,-683 470,-662 439,-662"/>
<text text-anchor="start" x="442" y="-668.8" font-family="Times,serif" font-size="14.00" fill="#000000">pos</text>
<polygon fill="#e0ffe0" stroke="transparent" points="470,-662 470,-683 504,-683 504,-662 470,-662"/>
<polygon fill="none" stroke="#000000" points="470,-662 470,-683 504,-683 504,-662 470,-662"/>
<text text-anchor="start" x="473" y="-668.8" font-family="Times,serif" font-size="14.00" fill="#000000">size</text>
<polygon fill="#e0ffe0" stroke="transparent" points="504,-662 504,-683 546,-683 546,-662 504,-662"/>
<polygon fill="none" stroke="#000000" points="504,-662 504,-683 546,-683 546,-662 504,-662"/>
<text text-anchor="start" x="509" y="-668.8" font-family="Times,serif" font-size="14.00" fill="#000000">type</text>
<polygon fill="#e0ffe0" stroke="transparent" points="546,-662 546,-683 595,-683 595,-662 546,-662"/>
<polygon fill="none" stroke="#000000" points="546,-662 546,-683 595,-683 595,-662 546,-662"/>
<text text-anchor="start" x="563.5" y="-668.8" font-family="Times,serif" font-size="14.00" fill="#000000">id</text>
<polygon fill="none" stroke="#000000" points="439,-641 439,-662 470,-662 470,-641 439,-641"/>
<text text-anchor="start" x="449.5" y="-647.8" font-family="Times,serif" font-size="14.00" fill="#000000">0</text>
<polygon fill="none" stroke="#000000" points="470,-641 470,-662 504,-662 504,-641 470,-641"/>
<text text-anchor="start" x="482" y="-647.8" font-family="Times,serif" font-size="14.00" fill="#000000">4</text>
<polygon fill="none" stroke="#000000" points="504,-641 504,-662 546,-662 546,-641 504,-641"/>
<text text-anchor="start" x="507" y="-647.8" font-family="Times,serif" font-size="14.00" fill="#000000">u4be</text>
<polygon fill="none" stroke="#000000" points="546,-641 546,-662 595,-662 595,-641 546,-641"/>
<text text-anchor="start" x="549.5" y="-647.8" font-family="Times,serif" font-size="14.00" fill="#000000">major</text>
<polygon fill="none" stroke="#000000" points="439,-620 439,-641 470,-641 470,-620 439,-620"/>
<text text-anchor="start" x="449.5" y="-626.8" font-family="Times,serif" font-size="14.00" fill="#000000">4</text>
<polygon fill="none" stroke="#000000" points="470,-620 470,-641 504,-641 504,-620 470,-620"/>
<text text-anchor="start" x="482" y="-626.8" font-family="Times,serif" font-size="14.00" fill="#000000">4</text>
<polygon fill="none" stroke="#000000" points="504,-620 504,-641 546,-641 546,-620 504,-620"/>
<text text-anchor="start" x="507" y="-626.8" font-family="Times,serif" font-size="14.00" fill="#000000">u4be</text>
<polygon fill="none" stroke="#000000" points="546,-620 546,-641 595,-641 595,-620 546,-620"/>
<text text-anchor="start" x="549" y="-626.8" font-family="Times,serif" font-size="14.00" fill="#000000">minor</text>
</g>
<!-- header__seq&#45;&gt;vbmeta__seq -->
<g id="edge2" class="edge">
<title>header__seq:auth_size_type&#45;&gt;vbmeta__seq:auth_size</title>
<path fill="none" stroke="#404040" d="M321.5,-270C375.315,-270 326.3359,-345.5683 365,-383 377.1278,-394.7413 392.9746,-402.9621 408.9145,-408.7132"/>
<polygon fill="#404040" stroke="#404040" points="408.2257,-412.1716 418.8189,-411.9842 410.421,-405.5247 408.2257,-412.1716"/>
</g>
<!-- header__seq&#45;&gt;vbmeta__seq -->
<g id="edge3" class="edge">
<title>header__seq:aux_size_type&#45;&gt;vbmeta__seq:aux_size</title>
<path fill="none" stroke="#404040" d="M321.5,-249C384.115,-249 315.6926,-344.407 365,-383 373.0208,-389.2779 442.5953,-382.3217 467.8718,-386.3448"/>
<polygon fill="#404040" stroke="#404040" points="466.5015,-389.5748 477,-391 469.6817,-383.3389 466.5015,-389.5748"/>
</g>
<!-- header__seq&#45;&gt;position__seq -->
<g id="edge5" class="edge">
<title>header__seq:hash_type&#45;&gt;position__seq</title>
<path fill="none" stroke="#000000" stroke-width="2" d="M321.5,-207C386.0062,-207 321.7416,-446.1486 365,-494 379.972,-510.5617 400.9344,-520.5165 422.5178,-526.3973"/>
<polygon fill="#000000" stroke="#000000" stroke-width="2" points="421.9143,-529.8527 432.4588,-528.8217 423.5729,-523.052 421.9143,-529.8527"/>
</g>
<!-- header__seq&#45;&gt;position__seq -->
<g id="edge6" class="edge">
<title>header__seq:sign_type&#45;&gt;position__seq</title>
<path fill="none" stroke="#000000" stroke-width="2" d="M321.5,-185C390.8437,-185 318.7699,-442.3151 365,-494 379.8843,-510.6405 400.8152,-520.6238 422.3961,-526.5067"/>
<polygon fill="#000000" stroke="#000000" stroke-width="2" points="421.7936,-529.9622 432.3381,-528.9303 423.4516,-523.1614 421.7936,-529.9622"/>
</g>
<!-- header__seq&#45;&gt;position__seq -->
<g id="edge7" class="edge">
<title>header__seq:pk_type&#45;&gt;position__seq</title>
<path fill="none" stroke="#000000" stroke-width="2" d="M321.5,-164C395.4677,-164 315.9301,-438.6523 365,-494 379.811,-510.7058 400.7155,-520.7125 422.2945,-526.5972"/>
<polygon fill="#000000" stroke="#000000" stroke-width="2" points="421.6928,-530.053 432.2372,-529.0202 423.3502,-523.252 421.6928,-530.053"/>
</g>
<!-- header__seq&#45;&gt;position__seq -->
<g id="edge8" class="edge">
<title>header__seq:pk_meta_type&#45;&gt;position__seq</title>
<path fill="none" stroke="#000000" stroke-width="2" d="M321.5,-143C400.0967,-143 313.0878,-434.9867 365,-494 379.746,-510.7632 400.6272,-520.7905 422.2044,-526.6767"/>
<polygon fill="#000000" stroke="#000000" stroke-width="2" points="421.6035,-530.1326 432.1478,-529.0992 423.2604,-523.3316 421.6035,-530.1326"/>
</g>
<!-- header__seq&#45;&gt;position__seq -->
<g id="edge9" class="edge">
<title>header__seq:desc_type&#45;&gt;position__seq</title>
<path fill="none" stroke="#000000" stroke-width="2" d="M321.5,-122C404.7299,-122 310.2434,-431.3188 365,-494 379.7659,-510.9029 400.7694,-520.9656 422.4667,-526.8402"/>
<polygon fill="#000000" stroke="#000000" stroke-width="2" points="421.9225,-530.3093 432.4646,-529.2542 423.5654,-523.5049 421.9225,-530.3093"/>
</g>
<!-- header__seq&#45;&gt;version__seq -->
<g id="edge4" class="edge">
<title>header__seq:version_type&#45;&gt;version__seq</title>
<path fill="none" stroke="#000000" stroke-width="2" d="M321.5,-291C391.7241,-291 319.6796,-550.3578 365,-604 379.4034,-621.0482 399.8171,-632.1187 421.0247,-639.2859"/>
<polygon fill="#000000" stroke="#000000" stroke-width="2" points="420.2182,-642.7 430.8059,-642.3117 422.2869,-636.0127 420.2182,-642.7"/>
</g>
<!-- header__inst__hashtree_disabled -->
<g id="node5" class="node">
<title>header__inst__hashtree_disabled</title>
<polygon fill="#e0ffe0" stroke="transparent" points="382,-64 382,-85 518,-85 518,-64 382,-64"/>
<polygon fill="none" stroke="#000000" points="382,-64 382,-85 518,-85 518,-64 382,-64"/>
<text text-anchor="start" x="443" y="-70.8" font-family="Times,serif" font-size="14.00" fill="#000000">id</text>
<polygon fill="#e0ffe0" stroke="transparent" points="518,-64 518,-85 652,-85 652,-64 518,-64"/>
<polygon fill="none" stroke="#000000" points="518,-64 518,-85 652,-85 652,-64 518,-64"/>
<text text-anchor="start" x="565.5" y="-70.8" font-family="Times,serif" font-size="14.00" fill="#000000">value</text>
<polygon fill="none" stroke="#000000" points="382,-43 382,-64 518,-64 518,-43 382,-43"/>
<text text-anchor="start" x="385" y="-49.8" font-family="Times,serif" font-size="14.00" fill="#000000">hashtree_disabled</text>
<polygon fill="none" stroke="#000000" points="518,-43 518,-64 652,-64 652,-43 518,-43"/>
<text text-anchor="start" x="521" y="-49.8" font-family="Times,serif" font-size="14.00" fill="#000000">(flags &amp; (1 &lt;&lt; 0))</text>
</g>
<!-- header__seq&#45;&gt;header__inst__hashtree_disabled -->
<g id="edge10" class="edge">
<title>header__seq:flags_type&#45;&gt;header__inst__hashtree_disabled</title>
<path fill="none" stroke="#404040" d="M321.5,-80C335.1331,-80 349.2832,-79.6087 363.4552,-78.9486"/>
<polygon fill="#404040" stroke="#404040" points="363.9628,-82.4273 373.7714,-78.4221 363.606,-75.4364 363.9628,-82.4273"/>
</g>
<!-- header__inst__verification_disabled -->
<g id="node6" class="node">
<title>header__inst__verification_disabled</title>
<polygon fill="#e0ffe0" stroke="transparent" points="373,-132 373,-153 527,-153 527,-132 373,-132"/>
<polygon fill="none" stroke="#000000" points="373,-132 373,-153 527,-153 527,-132 373,-132"/>
<text text-anchor="start" x="443" y="-138.8" font-family="Times,serif" font-size="14.00" fill="#000000">id</text>
<polygon fill="#e0ffe0" stroke="transparent" points="527,-132 527,-153 661,-153 661,-132 527,-132"/>
<polygon fill="none" stroke="#000000" points="527,-132 527,-153 661,-153 661,-132 527,-132"/>
<text text-anchor="start" x="574.5" y="-138.8" font-family="Times,serif" font-size="14.00" fill="#000000">value</text>
<polygon fill="none" stroke="#000000" points="373,-111 373,-132 527,-132 527,-111 373,-111"/>
<text text-anchor="start" x="376" y="-117.8" font-family="Times,serif" font-size="14.00" fill="#000000">verification_disabled</text>
<polygon fill="none" stroke="#000000" points="527,-111 527,-132 661,-132 661,-111 527,-111"/>
<text text-anchor="start" x="530" y="-117.8" font-family="Times,serif" font-size="14.00" fill="#000000">(flags &amp; (1 &lt;&lt; 1))</text>
</g>
<!-- header__seq&#45;&gt;header__inst__verification_disabled -->
<g id="edge11" class="edge">
<title>header__seq:flags_type&#45;&gt;header__inst__verification_disabled</title>
<path fill="none" stroke="#404040" d="M321.5,-80C342.4231,-80 345.0501,-91.693 365,-98 371.9131,-100.1855 379.0455,-102.2862 386.2755,-104.2959"/>
<polygon fill="#404040" stroke="#404040" points="385.6162,-107.7434 396.1834,-106.9793 387.4462,-100.9868 385.6162,-107.7434"/>
</g>
</g>
</svg>
